Lynch.S02E05.1280x1080i.HDTV.h264.THoRCuATo.mkv
Format                           : Matroska
File size                        : 1.59 GiB
Duration                         : 46mn 44s
Overall bit rate                 : 4 857 Kbps
Encoded date                     : UTC 2013-05-25 03:39:19
Writing application              : mkvmerge v6.1.0 ('Old Devil') built on Mar  2 2013 14:32:37
Writing library                  : libebml v1.3.0 + libmatroska v1.4.0

Video
ID                               : 1
Format                           : AVC
Format/Info                      : Advanced Video Codec
Format profile                   : Main@L4.0
Format settings, CABAC           : Yes
Format settings, ReFrames        : 4 frames
Format settings, GOP             : M=1, N=41
Muxing mode                      : Container profile=Unknown@4.0
Codec ID                         : V_MPEG4/ISO/AVC
Duration                         : 46mn 44s
Bit rate                         : 4 632 Kbps
Width                            : 1 280 pixels
Height                           : 1 080 pixels
Display aspect ratio             : 16:9
Frame rate                       : 29.970 fps
Color space                      : YUV
Chroma subsampling               : 4:2:0
Bit depth                        : 8 bits
Scan type                        : MBAFF
Scan order                       : Top Field First
Bits/(Pixel*Frame)               : 0.112
Stream size                      : 1.51 GiB (95%)

Audio
ID                               : 2
Format                           : MPEG Audio
Format version                   : Version 1
Format profile                   : Layer 2
Codec ID                         : A_MPEG/L2
Codec ID/Hint                    : MP2
Duration                         : 46mn 44s
Bit rate mode                    : Constant
Bit rate                         : 128 Kbps
Channel(s)                       : 2 channels
Sampling rate                    : 48.0 KHz
Video delay                      : 46ms
Stream size                      : 42.8 MiB (3%)

----------------------------------------------------------------------------

SOURCE: HDTV

NOTA: EL TAMAÑO DE IMAGEN ES 1280x1080 DESPLEGADO CON RELACION DE ASPECTO 16:9 (ASI VIENE LA SEÑAL HDTV).

		

